<svg xmlns="http://www.w3.org/2000/svg" viewBox="0 0 1200 675" role="img" aria-label="Platzhalter: Titelbild zum Beitrag über den Gründungszuschuss">
  <!-- Platzhalter  später durch echtes Titelbild ersetzen (Seitenverhältnis 16:9) -->
  <defs>
    <linearGradient id="c2" x1="0" y1="0" x2="1" y2="1">
      <stop offset="0" stop-color="#E7F4EE"/>
      <stop offset="1" stop-color="#EAF0F7"/>
    </linearGradient>
  </defs>
  <rect width="1200" height="675" fill="url(#c2)"/>
  <g fill="none" stroke-linecap="round">
    <g stroke="#18A870" stroke-opacity="0.15" stroke-width="24">
      <path d="M-60 180 C 280 80, 900 90, 1260 210"/>
      <path d="M-60 500 C 280 400, 900 410, 1260 530"/>
    </g>
    <g stroke="#002858" stroke-opacity="0.09" stroke-width="24">
      <path d="M-60 340 C 280 240, 900 250, 1260 370"/>
    </g>
  </g>
  <!-- aufsteigende Balken als Sinnbild für die Startphase -->
  <g transform="translate(600 320)">
    <rect x="-190" y="-10" width="70" height="110" rx="10" fill="#002858" fill-opacity="0.24"/>
    <rect x="-100" y="-60" width="70" height="160" rx="10" fill="#002858" fill-opacity="0.32"/>
    <rect x="-10" y="-110" width="70" height="210" rx="10" fill="#18A870" fill-opacity="0.55"/>
    <rect x="80" y="-160" width="70" height="260" rx="10" fill="#0E6B48" fill-opacity="0.65"/>
    <path d="M-210 40 L -50 -70 L 40 -20 L 190 -180" fill="none" stroke="#0E6B48" stroke-opacity="0.55" stroke-width="6" stroke-linecap="round" stroke-linejoin="round"/>
  </g>
  <text x="600" y="500" text-anchor="middle" font-family="Sora, Segoe UI, sans-serif" font-size="26" font-weight="700" fill="#002858" fill-opacity="0.6">Platzhalter</text>
  <text x="600" y="536" text-anchor="middle" font-family="Inter, Segoe UI, sans-serif" font-size="20" fill="#5B6B7B">Titelbild Blogbeitrag · 16:9</text>
</svg>
